<?xml version="1.0" encoding="UTF-8" standalone="no"?>
<!-- Created with Inkscape (http://www.inkscape.org/) -->

<svg
   xmlns:dc="http://purl.org/dc/elements/1.1/"
   xmlns:cc="http://creativecommons.org/ns#"
   xmlns:rdf="http://www.w3.org/1999/02/22-rdf-syntax-ns#"
   xmlns:svg="http://www.w3.org/2000/svg"
   xmlns="http://www.w3.org/2000/svg"
   xmlns:sodipodi="http://sodipodi.sourceforge.net/DTD/sodipodi-0.dtd"
   xmlns:inkscape="http://www.inkscape.org/namespaces/inkscape"
   width="90"
   height="90"
   id="svg4293"
   version="1.1"
   inkscape:version="0.91 r13725"
   sodipodi:docname="ToolIconBriefing.svg"
   inkscape:export-filename="/home/micha/Projects/IMHOTEP/Source/media/ui/UI.png"
   inkscape:export-xdpi="90"
   inkscape:export-ydpi="90">
  <defs
     id="defs4295">
    <inkscape:path-effect
       effect="spiro"
       id="path-effect4400"
       is_visible="true" />
    <inkscape:path-effect
       effect="spiro"
       id="path-effect4394"
       is_visible="true" />
    <inkscape:path-effect
       effect="spiro"
       id="path-effect4390"
       is_visible="true" />
    <inkscape:path-effect
       effect="spiro"
       id="path-effect4386"
       is_visible="true" />
    <inkscape:path-effect
       effect="spiro"
       id="path-effect4382"
       is_visible="true" />
    <inkscape:path-effect
       effect="spiro"
       id="path-effect4365"
       is_visible="true" />
    <inkscape:path-effect
       effect="spiro"
       id="path-effect4361"
       is_visible="true" />
    <inkscape:path-effect
       effect="spiro"
       id="path-effect4357"
       is_visible="true" />
    <inkscape:path-effect
       effect="spiro"
       id="path-effect4338"
       is_visible="true" />
    <inkscape:path-effect
       effect="spiro"
       id="path-effect4334"
       is_visible="true" />
    <inkscape:path-effect
       effect="spiro"
       id="path-effect4330"
       is_visible="true" />
    <inkscape:path-effect
       effect="spiro"
       id="path-effect4326"
       is_visible="true" />
    <inkscape:path-effect
       effect="spiro"
       id="path-effect4318"
       is_visible="true" />
    <inkscape:path-effect
       effect="spiro"
       id="path-effect4314"
       is_visible="true" />
    <inkscape:path-effect
       effect="spiro"
       id="path-effect4310"
       is_visible="true" />
    <clipPath
       clipPathUnits="userSpaceOnUse"
       id="clipPath4788">
      <path
         style="fill:#ffffff;fill-opacity:1;fill-rule:nonzero;stroke:#ffffff;stroke-width:3.39546537;stroke-linecap:round;stroke-linejoin:round;stroke-miterlimit:4;stroke-dasharray:none;stroke-dashoffset:0;stroke-opacity:1"
         d="m 114.01888,862.1734 -39.124215,6.7345 -2.565512,35.59663 63.496667,-7.69657 -4.81036,-32.38972 z"
         id="path4790"
         inkscape:connector-curvature="0" />
    </clipPath>
    <clipPath
       clipPathUnits="userSpaceOnUse"
       id="clipPath3869">
      <path
         style="opacity:0.9;fill:none;stroke:#8d3800;stroke-width:3;stroke-linecap:round;stroke-linejoin:round;stroke-miterlimit:4;stroke-dasharray:none;stroke-dashoffset:0;stroke-opacity:1"
         d="m 45.334386,1005.0444 0.566679,-6.13905 -5.005671,-3.30563 0.944466,-8.02796 1.983379,-7.0835 18.133755,3.87231 0.28334,24.46163 z"
         id="path3871"
         inkscape:connector-curvature="0" />
    </clipPath>
  </defs>
  <sodipodi:namedview
     id="base"
     pagecolor="#000000"
     bordercolor="#666666"
     borderopacity="1.0"
     inkscape:pageopacity="0"
     inkscape:pageshadow="2"
     inkscape:zoom="5.6568544"
     inkscape:cx="54.604218"
     inkscape:cy="35.311783"
     inkscape:document-units="px"
     inkscape:current-layer="layer1"
     showgrid="true"
     inkscape:snap-global="false"
     inkscape:window-width="1600"
     inkscape:window-height="1137"
     inkscape:window-x="-8"
     inkscape:window-y="-8"
     inkscape:window-maximized="1"
     borderlayer="false"
     inkscape:showpageshadow="true"
     showborder="true">
    <inkscape:grid
       type="xygrid"
       id="grid4301"
       empspacing="9"
       visible="true"
       enabled="true"
       snapvisiblegridlinesonly="true"
       spacingx="5px"
       spacingy="5px" />
  </sodipodi:namedview>
  <metadata
     id="metadata4298">
    <rdf:RDF>
      <cc:Work
         rdf:about="">
        <dc:format>image/svg+xml</dc:format>
        <dc:type
           rdf:resource="http://purl.org/dc/dcmitype/StillImage" />
        <dc:title />
      </cc:Work>
    </rdf:RDF>
  </metadata>
  <g
     inkscape:groupmode="layer"
     id="layer2"
     inkscape:label="Background"
     style="display:none"
     transform="translate(0,-270)">
    <rect
       style="opacity:0.9;fill:#1a1a1a;fill-opacity:0.88235294;fill-rule:nonzero;stroke:#a42e00;stroke-width:3;stroke-linecap:round;stroke-linejoin:round;stroke-miterlimit:4;stroke-dasharray:none;stroke-dashoffset:0;stroke-opacity:1"
       id="rect3771"
       width="585"
       height="540"
       x="-90"
       y="-90"
       sodipodi:insensitive="true" />
  </g>
  <g
     inkscape:label="Layer 1"
     inkscape:groupmode="layer"
     id="layer1"
     transform="translate(0,-962.3622)">
    <path
       style="fill:none;stroke:#ffffff;stroke-width:3;stroke-linecap:round;stroke-linejoin:round;stroke-miterlimit:4;stroke-dasharray:none;stroke-dashoffset:0;stroke-opacity:1"
       d="m 170.76549,753.95502 c 0,0 -0.0531,4.86508 -0.7711,6.40356 -0.71796,1.53848 -6.15392,5.3334 -8.10267,6.05136 -1.94874,0.71795 -13.43606,4.718 -13.43606,4.718"
       id="path3822"
       inkscape:connector-curvature="0"
       sodipodi:nodetypes="cssc" />
    <path
       style="fill:none;stroke:#ffffff;stroke-width:3;stroke-linecap:round;stroke-linejoin:round;stroke-miterlimit:4;stroke-dasharray:none;stroke-dashoffset:0;stroke-opacity:1"
       d="m 166.89502,748.61168 c -2.05965,-7.13134 -2.70919,-10.63394 -3.16983,-16.86884 0,0 -0.30769,-7.48727 0.6154,-10.15397 1.44539,-4.17555 2.56413,-8.71805 7.89753,-11.07705 3.91719,-1.7326 8.12106,-1.50142 8.12106,-1.50142 0,0 4.20388,-0.23118 8.12107,1.50142 5.3334,2.359 6.45214,6.9015 7.89753,11.07705 0.92309,2.6667 0.6154,10.15397 0.6154,10.15397 -0.21509,6.64415 -1.62688,12.71236 -3.34288,17.12842 -2.01613,4.73811 -8.80859,9.37859 -13.29112,9.37859 -4.48252,0 -11.44803,-4.90007 -13.46416,-9.63817 z"
       id="path3820"
       inkscape:connector-curvature="0"
       sodipodi:nodetypes="ccsscsscccc" />
    <path
       inkscape:connector-curvature="0"
       id="path3824"
       d="m 189.44031,754.40607 c 0,0 0.32378,4.41403 1.04173,5.95251 0.71796,1.53848 6.15392,5.3334 8.10267,6.05136 1.94874,0.71795 13.43606,4.718 13.43606,4.718"
       style="fill:none;stroke:#ffffff;stroke-width:3;stroke-linecap:round;stroke-linejoin:round;stroke-miterlimit:4;stroke-dasharray:none;stroke-dashoffset:0;stroke-opacity:1"
       sodipodi:nodetypes="cssc" />
    <circle
       style="fill:none;fill-rule:evenodd;stroke:#ffffff;stroke-width:5;stroke-linecap:butt;stroke-linejoin:miter;stroke-opacity:1;stroke-miterlimit:4;stroke-dasharray:none"
       id="path3411"
       cx="45.125"
       cy="1007.2372"
       r="39.875" />
    <path
       style="fill:#ffffff;fill-rule:evenodd;stroke:#ffffff;stroke-width:1px;stroke-linecap:butt;stroke-linejoin:miter;stroke-opacity:1"
       d="M 61.693359 18.138672 C 57.347467 18.715238 54.098949 22.418766 54.09375 26.802734 C 54.09755 27.708184 54.241831 28.60756 54.521484 29.46875 L 24.837891 59.505859 C 19.314485 65.641059 25.877454 70.689406 30.759766 65.691406 L 60.998047 35.351562 C 61.604406 35.483883 62.223122 35.55132 62.84375 35.552734 C 67.676139 35.552488 71.593504 31.635123 71.59375 26.802734 C 71.593718 25.337379 71.350691 23.989245 70.648438 22.703125 L 70.345703 22.96875 L 67.28125 29.132812 L 61.507812 29.767578 L 58.496094 24.570312 L 61.679688 18.511719 L 61.693359 18.138672 z M 26.8125 61.1875 A 2.4375 2.4375 0 0 1 29.25 63.625 A 2.4375 2.4375 0 0 1 26.8125 66.0625 A 2.4375 2.4375 0 0 1 24.375 63.625 A 2.4375 2.4375 0 0 1 26.8125 61.1875 z "
       transform="translate(0,962.3622)"
       id="path4215" />
    <path
       style="fill:#ffffff;fill-rule:evenodd;stroke:#ffffff;stroke-width:1px;stroke-linecap:butt;stroke-linejoin:miter;stroke-opacity:1"
       d="m 53.531555,46.614314 c -2.019211,2.045653 -4.0342,3.971425 -6.05664,6.015625 l 13.655018,13.470659 c 6.1352,5.5234 11.183547,-1.039575 6.185547,-5.921875 z"
       transform="translate(0,962.3622)"
       id="path4251"
       inkscape:connector-curvature="0"
       sodipodi:nodetypes="ccccc" />
    <path
       style="fill:#ffffff;fill-rule:evenodd;stroke:#ffffff;stroke-width:1px;stroke-linecap:butt;stroke-linejoin:miter;stroke-opacity:1"
       d="m 23.158203,20.880859 -1.327129,1.28194 2.563457,4.727826 2.962201,1.061504 11.700139,13.390588 c 1.048505,-1.011381 1.521408,-1.537368 2.571961,-2.547067 L 28.68233,26.802274 28.195312,24.0625 Z"
       transform="translate(0,962.3622)"
       id="path4255"
       inkscape:connector-curvature="0"
       sodipodi:nodetypes="ccccccccc" />
  </g>
</svg>
